<?xml version="1.0" standalone="no"?> <!DOCTYPE svg PUBLIC "-//W3C//DTD SVG 1.0//EN" "http://www.w3.org/TR/2001/REC-SVG-20010904/DTD/svg10.dtd" > <svg xmlns="http://www.w3.org/2000/svg" width="100%" height="100%">
<defs >
<font id="futurastdcondensedbold" horiz-adv-x="741" ><font-face
    font-family="Futura Std Condensed"
    units-per-em="2048"
    panose-1="2 11 7 6 2 2 4 3 2 4"
    ascent="1690"
    descent="-359"
    alphabetic="0" />
<missing-glyph horiz-adv-x="1024" d="M0 0V1434H1024V0H0ZM512 809L860 1331H164L512 809ZM573 717L922 195V1239L573 717ZM164 102H860L512 625L164 102ZM102 1239V195L451 717L102 1239Z" />
<glyph unicode=" " glyph-name="space" horiz-adv-x="501" />
<glyph unicode="!" glyph-name="exclam" horiz-adv-x="503" d="M403 1544V463H102V1544H403ZM252 365Q331 365 388 308T446 170T389 33T252 -25T115 32T57 170T114 307T252 365Z" />
<glyph unicode="&quot;" glyph-name="quotedbl" horiz-adv-x="737" d="M668 948H444L414 1544H698L668 948ZM293 948H70L39 1544H324L293 948Z" />
<glyph unicode="#" glyph-name="numbersign" horiz-adv-x="1003" d="M901 692V487H725L666 0H496L553 487H401L342 0H170L227 487H53V692H254L276 885H104V1090H299L354 1544H524L471 1090H625L678 1544H850L795 1090H950V885H770L748 692H901ZM600 885H449L426
692H575L600 885Z" />
<glyph unicode="$" glyph-name="dollar" horiz-adv-x="1003" d="M428 1556V1702H578V1556Q793 1524 907 1376L739 1192Q635 1311 504 1311Q423 1311 377 1270T330 1149Q330 1078 371 1040T492 969Q543 948 572 936T648 901T723 862T788 819T848 768T896 709T935
639T958 558T967 463Q967 280 861 144T578 -25V-201H428V-25Q182 10 43 156L186 383Q227 343 254 321T320 272T401 233T489 221Q570 221 623 278T676 422Q676 466 662 500T616 560T559 600T487 637Q310 717 239 764Q79 871 48 1029Q39 1072 39 1120Q39 1303 142
1415T428 1556Z" />
<glyph unicode="%" glyph-name="percent" horiz-adv-x="1757" d="M399 1559Q491 1559 556 1521T656 1415T706 1275T721 1114T706 954T657 814T557 709T399 670T242 708T142 813T93 953T78 1114Q78 1182 86 1242T117 1362T175 1464T267 1532T399 1559ZM399 1325Q324
1325 324 1114Q324 1088 326 1061T334 994T357 929T399 903T441 928T464 993T473 1060T475 1114T473 1167T465 1235T441 1300T399 1325ZM1264 874T1356 874T1513 836T1613 731T1662 591T1677 430T1662 270T1613 130T1514 25T1356 -14T1199 24T1099 129T1049 269T1034
430T1049 590T1098 730T1198 835ZM1356 641Q1280 641 1280 430Q1280 404 1282 377T1290 310T1314 245T1356 219T1397 244T1421 309T1430 376T1432 430T1430 483T1421 551T1398 616T1356 641ZM1135 1544H1354L623 0H403L1135 1544Z" />
<glyph unicode="&amp;" glyph-name="ampersand" horiz-adv-x="1208" d="M498 1018Q546 1044 575 1087T604 1182Q604 1217 583 1241T526 1266Q486 1266 459 1241T432 1174Q432 1157 435 1141T447 1107T462 1078T480 1047T498 1018ZM627 299L424 608Q392 583 371
540T350 457Q350 373 398 315T520 256Q578 256 627 299ZM823 0L764 90Q705 40 630 10T481 -20Q359 -20 260 44T107 212T53 436Q53 564 110 662T276 844Q168 1033 168 1163Q168 1315 271 1408T528 1501Q674 1501 778 1419T883 1194Q883 1074 816 974T635 776L840
459Q855 475 889 509T948 571T993 627L1155 408Q1091 329 997 256L985 246L1147 0H823Z" />
<glyph unicode="&apos;" glyph-name="quotesingle" horiz-adv-x="512" d="M369 948H145L115 1544H399L369 948Z" />
<glyph unicode="(" glyph-name="parenleft" horiz-adv-x="614" d="M313 1569L578 1511Q373 1089 373 631Q373 210 578 -219L313 -279Q86 161 86 637Q86 875 144 1118T313 1569Z" />
<glyph unicode=")" glyph-name="parenright" horiz-adv-x="614" d="M301 -279L37 -221Q242 204 242 659Q242 1080 37 1509L301 1569Q528 1132 528 653Q528 414 470 171T301 -279Z" />
<glyph unicode="*" glyph-name="asterisk" horiz-adv-x="770" d="M324 1544H455V1300L657 1430L723 1315L508 1196L723 1075L657 958L455 1092V840H324V1092L113 958L47 1075L260 1196L47 1315L113 1430L324 1300V1544Z" />
<glyph unicode="+" glyph-name="plus" horiz-adv-x="1003" d="M389 637V1022H614V637H963V412H614V14H389V412H43V637H389Z" />
<glyph unicode="," glyph-name="comma" horiz-adv-x="501" d="M137 332H446L137 -295H-68L137 332Z" />
<glyph unicode="-" glyph-name="hyphen" horiz-adv-x="651" d="M70 813H582V541H70V813Z" />
<glyph unicode="." glyph-name="period" horiz-adv-x="501" d="M169 365T250 365T387 308T444 170Q444 89 388 32T250 -25T112 32T55 170Q55 250 112 307Z" />
<glyph unicode="/" glyph-name="slash" horiz-adv-x="1120" d="M868 1653H1102L297 -340H63L868 1653Z" />
<glyph unicode="0" glyph-name="zero" horiz-adv-x="1003" d="M425 1569T502 1569T642 1539T750 1459T828 1341T882 1201T914 1049T931 902T936 772T932 642T915 496T882 344T828 203T750 85T643 6T502 -25T361 5T254 85T176 203T122 344T90 495T73 641T68 772T72
902T89 1048T122 1200T176 1340T253 1459T361 1538ZM502 1290Q468 1290 443 1263T404 1192T380 1093T369 984T365 880T365 797Q365 779 365 772T365 747Q363 714 365 665T368 561T380 451T403 353T442 282T502 254Q643 254 639 748Q639 765 639 772T639 796Q643
1290 502 1290Z" />
<glyph unicode="1" glyph-name="one" horiz-adv-x="1003" d="M225 1544H670V0H373V1278H225V1544Z" />
<glyph unicode="2" glyph-name="two" horiz-adv-x="1003" d="M389 1008H106L102 1092Q102 1182 113 1252T151 1383T224 1485T340 1548T506 1571Q703 1571 812 1471T922 1176Q922 1068 890 973T795 756L537 266H895V0H84L432 639Q539 836 576 929Q631 1066 631
1165Q631 1211 622 1251T583 1323T508 1356Q385 1356 385 1106L389 1008Z" />
<glyph unicode="3" glyph-name="three" horiz-adv-x="1003" d="M358 406L356 362Q356 317 385 280T471 242Q515 242 544 262T585 318T600 386T604 461Q604 589 554 635T373 676V942Q504 942 555 982T606 1145Q606 1303 502 1303Q399 1303 399 1143V1112H135Q130
1209 146 1288T203 1432T318 1533T496 1569Q680 1569 783 1460T887 1165Q887 876 696 801V797Q758 781 805 745T879 659T920 552T934 430Q934 218 812 97T477 -25Q283 -25 173 93T72 406H358Z" />
<glyph unicode="4" glyph-name="four" horiz-adv-x="1003" d="M467 1544H803V606H928V373H803V0H506V373H57V602L467 1544ZM506 606V1192H502L272 606H506Z" />
<glyph unicode="5" glyph-name="five" horiz-adv-x="1003" d="M152 784L272 1544H862V1278H485L444 1028Q675 1016 790 884T905 518Q905 264 777 120T397 -25Q244 -25 100 45L152 313Q240 242 340 242Q455 242 517 323T580 522Q580 661 496 729T268 797Q219 797 152 784Z" />
<glyph unicode="6" glyph-name="six" horiz-adv-x="1003" d="M422 1544H717L422 942L426 938Q473 980 517 1001T618 1022Q674 1022 722 1000T803 939T861 853T901 750T923 644T930 543Q930 456 917 377T871 224T790 95T667 8T498 -25Q409 -25 337 6T216 88T136
210T90 357T76 518Q76 708 131 880T295 1282L422 1544ZM510 752Q477 752 452 732T412 681T389 613T376 543T373 485Q373 453 379 415T398 334T439 264T502 236Q543 236 571 266T611 345T628 433T633 510Q633 544 628 580T611 658T573 726T510 752Z" />
<glyph unicode="7" glyph-name="seven" horiz-adv-x="1003" d="M150 1544H983L401 0H84L565 1278H150V1544Z" />
<glyph unicode="8" glyph-name="eight" horiz-adv-x="1003" d="M328 831V836Q226 870 172 959T117 1161Q117 1336 223 1452T504 1569Q676 1569 782 1452T889 1161Q889 1048 835 960T678 834V831Q946 746 946 422Q946 230 821 103T504 -25Q311 -25 185 103T59 422Q59
743 328 831ZM414 1167Q414 991 498 991Q525 991 544 1004T572 1035T586 1080T591 1124T592 1165Q592 1191 589 1215T577 1267T548 1312T498 1329Q472 1329 454 1313T428 1269T417 1217T414 1167ZM500 684Q463 684 437 661T397 602T379 531T373 461T378 392T397
322T437 264T502 242Q539 242 566 265T607 324T627 394T633 461T626 528T605 600T563 660T500 684Z" />
<glyph unicode="9" glyph-name="nine" horiz-adv-x="1003" d="M584 0H289L584 604L580 608Q531 565 488 544T387 522Q320 522 266 554T177 638T119 754T86 882T76 1004Q76 1090 89 1169T135 1322T215 1450T339 1536T508 1569Q598 1569 670 1539T790 1457T870 1335T916
1187T930 1026Q930 838 875 666T711 264L584 0ZM504 1305Q463 1305 435 1275T394 1197T378 1111T373 1034Q373 1000 378 965T395 888T433 820T496 793Q537 793 566 823T608 899T627 985T633 1061Q633 1094 627 1131T608 1210T568 1279T504 1305Z" />
<glyph unicode=":" glyph-name="colon" horiz-adv-x="501" d="M169 365T250 365T387 308T444 170Q444 89 388 32T250 -25T112 32T55 170Q55 250 112 307ZM169 1055T250 1055T387 998T444 860Q444 780 388 723T250 666T112 723T55 860Q55 941 112 998Z" />
<glyph unicode=";" glyph-name="semicolon" horiz-adv-x="501" d="M137 332H444L137 -295H-68L137 332ZM171 1055T252 1055T389 998T446 860Q446 780 390 723T252 666T114 723T57 860Q57 941 114 998Z" />
<glyph unicode="&lt;" glyph-name="less" horiz-adv-x="1003" d="M287 524L963 193V-35L41 426V629L963 1094V866L287 524Z" />
<glyph unicode="=" glyph-name="equal" horiz-adv-x="1003" d="M963 836V610H43V836H963ZM963 436V211H43V436H963Z" />
<glyph unicode="&gt;" glyph-name="greater" horiz-adv-x="1003" d="M43 193L717 524L43 866V1094L963 629V426L43 -35V193Z" />
<glyph unicode="?" glyph-name="question" horiz-adv-x="929" d="M342 1155V1118H53Q45 1321 146 1445T446 1569Q646 1569 761 1440T877 1108Q877 1042 863 977T820 852T742 746T627 684V483H322V864Q349 858 373 858Q423 858 459 880T514 939T542 1016T551 1102Q551
1132 547 1161T533 1225T499 1281T442 1303Q391 1303 367 1258T342 1155ZM283 170Q283 249 340 307T475 365Q556 365 614 308T672 170T615 33T475 -25Q397 -25 340 32T283 170Z" />
<glyph unicode="@" glyph-name="at" horiz-adv-x="1705" d="M1032 764Q1036 811 1028 853T1001 929T946 981T864 995Q770 988 705 913T633 737Q627 641 668 583T778 516Q833 508 881 529T959 589T1009 673T1032 764ZM1102 1061L1124 1169H1325L1217 543Q1207 497
1241 498Q1283 500 1343 564Q1439 665 1462 808Q1467 840 1468 872Q1476 1121 1313 1270T885 1419Q745 1419 625 1371T419 1239T286 1036T238 780Q238 476 425 301T920 125Q1133 125 1339 313H1536Q1419 153 1257 64T903 -25Q654 -25 466 76T178 360T78 780Q78
847 90 917T131 1066T202 1215T311 1352T458 1464T650 1540T891 1569Q1099 1569 1267 1489T1531 1262T1628 930Q1628 830 1604 743T1541 595T1451 485T1349 406T1247 355T1159 327T1096 319Q1054 319 1026 355T1010 446L1006 451Q874 328 754 328Q596 328 502 434T408
700Q408 825 460 935T614 1114T842 1184Q1015 1184 1102 1061Z" />
<glyph unicode="A" glyph-name="A" horiz-adv-x="1081" d="M375 1544H696L1067 0H741L684 260H375L319 0H16L375 1544ZM639 502L561 913L526 1147H522L489 913L424 502H639Z" />
<glyph unicode="B" glyph-name="B" horiz-adv-x="980" d="M608 469Q608 562 556 619T414 674V256Q504 252 556 311T608 469ZM406 0H109V1544H408Q517 1544 589 1529T727 1460Q802 1400 843 1306T885 1112Q885 904 719 793Q809 749 859 646T909 434Q909 323 870
238T762 102T603 26T406 0ZM596 1106Q596 1192 548 1242T414 1288V911Q499 911 547 964T596 1106Z" />
<glyph unicode="C" glyph-name="C" horiz-adv-x="925" d="M879 1534V1253Q819 1270 764 1270Q667 1270 592 1229T471 1118T402 964T379 788Q379 717 393 647T437 509T512 391T620 308T762 276Q804 276 879 299V10Q814 -16 737 -16Q609 -16 498 28T306 150T168
329T82 547T53 786Q53 901 82 1013T169 1225T307 1399T494 1519T723 1563Q795 1563 879 1534Z" />
<glyph unicode="D" glyph-name="D" horiz-adv-x="1085" d="M381 0H109V1544H340Q343 1544 353 1544Q683 1560 861 1350Q1032 1149 1032 760Q1032 624 1011 512T942 303T819 140T633 37T381 0ZM414 274Q484 271 540 302T630 384T687 504T718 635T727 762Q727 826
719 890T689 1025T634 1148T543 1235T414 1270V274Z" />
<glyph unicode="E" glyph-name="E" horiz-adv-x="802" d="M109 1544H723V1257H414V922H686V635H414V287H727V0H109V1544Z" />
<glyph unicode="F" glyph-name="F" horiz-adv-x="806" d="M109 1544H725V1257H414V928H694V641H414V0H109V1544Z" />
<glyph unicode="G" glyph-name="G" horiz-adv-x="1153" d="M600 860H1100V739Q1100 664 1095 594T1074 445T1036 301T974 174T885 69T762 1T604 -25Q503 -25 419 9T276 104T173 241T104 408T66 586T53 764Q53 844 60 921T86 1079T132 1230T204 1364T304 1472T436
1543T604 1569Q776 1569 892 1471T1059 1202L762 1087Q756 1118 752 1138T735 1190T708 1239T666 1272T606 1286Q557 1289 518 1263T455 1190T415 1089T392 972T382 863T379 772Q379 258 614 258Q669 258 707 291T763 377T788 477T795 573H600V860Z" />
<glyph unicode="H" glyph-name="H" horiz-adv-x="1136" d="M109 1544H414V940H723V1544H1028V0H723V653H414V0H109V1544Z" />
<glyph unicode="I" glyph-name="I" horiz-adv-x="522" d="M109 1544H414V0H109V1544Z" />
<glyph unicode="J" glyph-name="J" horiz-adv-x="720" d="M623 1544V500Q623 496 623 487Q623 453 623 432T619 367T610 292T592 217T561 142T515 78T450 23T364 -11T254 -25Q114 -25 25 23V328Q53 290 95 266T184 242Q212 242 234 250T269 271T293 303T307 343T314
388T317 434T317 479Q317 493 317 500V1544H623Z" />
<glyph unicode="K" glyph-name="K" horiz-adv-x="1050" d="M109 1544H414V854H418L672 1544H983L698 831L1020 0H698L418 786H414V0H109V1544Z" />
<glyph unicode="L" glyph-name="L" horiz-adv-x="763" d="M109 1544H414V287H733V0H109V1544Z" />
<glyph unicode="M" glyph-name="M" horiz-adv-x="1478" d="M182 1544H584L733 633H737L860 1544H1270L1432 0H1118L1044 1112H1040L991 731L860 0H625L475 739L424 1083V1112H420L375 0H47L182 1544Z" />
<glyph unicode="N" glyph-name="N" horiz-adv-x="1173" d="M109 1544H401L782 612L786 616Q762 715 762 850V1544H1067V0H778L401 932L397 928L412 772L414 709V0H109V1544Z" />
<glyph unicode="O" glyph-name="O" horiz-adv-x="1191" d="M512 1569T596 1569T757 1543T904 1455T1026 1304T1108 1077T1139 772Q1139 604 1109 468T1027 241T905 89T757 2T596 -25T435 1T288 89T166 240T84 467T53 772Q53 941 83 1077T165 1303T287 1455T435
1542ZM379 772Q379 731 381 690T389 585T411 468T449 365T510 287T596 258T682 286T742 365T780 468T802 585T811 690T813 772Q813 816 811 858T803 965T781 1081T743 1182T682 1258T596 1286T510 1259T450 1183T412 1082T390 965T381 859T379 772Z" />
<glyph unicode="P" glyph-name="P" horiz-adv-x="997" d="M414 0H109V1544H426Q430 1544 440 1544Q456 1547 479 1545T532 1543T594 1536T663 1520T733 1493T800 1452T859 1394T906 1316T938 1215T950 1087Q950 874 823 754T481 633L414 637V0ZM414 1292V885Q529
880 587 928T645 1092Q645 1183 604 1237T471 1292H414Z" />
<glyph unicode="Q" glyph-name="Q" horiz-adv-x="1191" d="M645 629L784 475Q813 577 813 772Q813 816 811 858T803 965T781 1081T743 1182T682 1258T596 1286T510 1259T450 1183T412 1082T390 965T381 859T379 772Q379 731 381 690T389 585T411 468T449 365T510
287T596 258Q634 258 670 285L487 475L645 629ZM1024 227L1157 92L997 -59L879 70Q757 -25 596 -25Q512 -25 435 1T288 89T166 240T84 467T53 772Q53 941 83 1077T165 1303T287 1455T435 1542T596 1569T757 1543T904 1455T1026 1304T1108 1077T1139 772Q1139 420
1024 227Z" />
<glyph unicode="R" glyph-name="R" horiz-adv-x="1085" d="M414 0H109V1544H416Q468 1544 508 1542T607 1530T711 1503T805 1453T885 1375T937 1259T958 1102Q958 970 904 867T739 702L1008 0H686L418 713H414V0ZM414 1292V881L467 879Q567 879 614 939T662 1100Q662
1190 613 1244T455 1292H414Z" />
<glyph unicode="S" glyph-name="S" horiz-adv-x="901" d="M743 1493V1196Q630 1294 522 1294Q451 1294 410 1254T369 1143Q369 1092 394 1048T461 968T552 898T651 822T742 732T808 613T834 457Q834 244 716 110T389 -25Q322 -25 250 -5T127 53V344Q247 262 358
262Q434 262 484 308T535 430Q535 459 527 484T509 527T476 565T441 595T397 626T354 655Q283 703 235 746T147 843T89 965T70 1114Q70 1238 115 1340T253 1505T473 1569Q613 1569 743 1493Z" />
<glyph unicode="T" glyph-name="T" horiz-adv-x="847" d="M31 1544H817V1257H575V0H270V1257H31V1544Z" />
<glyph unicode="U" glyph-name="U" horiz-adv-x="1114" d="M100 1544H406V545Q406 536 406 518Q406 493 406 467T408 415T416 365T432 321T459 285T500 261T557 252Q588 252 612 259T652 276T679 306T695 341T704 385T707 430T709 479V1544H1014V418Q1014 374
1012 341T1000 259T972 174T920 99T839 34T719 -8T555 -25Q336 -25 218 80T100 397V1544Z" />
<glyph unicode="V" glyph-name="V" horiz-adv-x="1157" d="M16 1544H344L528 803Q540 764 549 720T568 622T584 539H588Q593 570 600 624T616 722T635 807L821 1544H1141L713 0H463L16 1544Z" />
<glyph unicode="W" glyph-name="W" horiz-adv-x="1624" d="M16 1544H328L459 807Q467 759 472 704T483 582T492 479H496Q500 509 508 581T523 705T541 807L694 1544H936L1133 479H1137Q1140 515 1144 581T1154 701T1167 803L1288 1544H1608L1288 0H1024L866 815Q862
856 823 1098H819Q814 1068 806 1009T789 904T770 815L594 0H328L16 1544Z" />
<glyph unicode="X" glyph-name="X" horiz-adv-x="1116" d="M45 1544H389L477 1329Q539 1155 551 1094H555Q575 1195 625 1329L717 1544H1047L717 797L1071 0H717L618 246Q591 322 551 477H547Q539 451 527 404T503 319T479 246L389 0H45L373 797L45 1544Z" />
<glyph unicode="Y" glyph-name="Y" horiz-adv-x="1052" d="M8 1544H344L504 1124L526 1049H530L565 1163L702 1544H1044L684 739V0H379V739L8 1544Z" />
<glyph unicode="Z" glyph-name="Z" horiz-adv-x="1040" d="M102 1544H1010L481 287H967V0H37L551 1257H102V1544Z" />
<glyph unicode="[" glyph-name="bracketleft" horiz-adv-x="655" d="M109 1544H623V1343H375V-53H627V-254H109V1544Z" />
<glyph unicode="\" glyph-name="backslash" horiz-adv-x="512" d="M-262 1653H-29L776 -340H543L-262 1653Z" />
<glyph unicode="]" glyph-name="bracketright" horiz-adv-x="655" d="M33 1544H547V-254H29V-53H281V1343H33V1544Z" />
<glyph unicode="^" glyph-name="asciicircum" horiz-adv-x="1003" d="M248 676L43 772L379 1544H625L963 772L758 676L502 1272L248 676Z" />
<glyph unicode="_" glyph-name="underscore" horiz-adv-x="1024" d="M0 -154H1024V-256H0V-154Z" />
<glyph unicode="`" glyph-name="grave" horiz-adv-x="614" d="M313 1544L510 1249L369 1167L104 1450L313 1544Z" />
<glyph unicode="a" glyph-name="a" horiz-adv-x="886" d="M449 244Q481 244 503 278T534 364T546 454T549 522Q549 556 546 592T534 680T502 766T444 799Q411 799 388 766T357 681T345 593T342 522Q342 493 343 467T350 397T366 322T398 268T449 244ZM528 0V117H524Q456
-20 334 -20Q267 -20 215 20T134 121T85 258T60 398T53 518Q53 581 58 643T81 783T127 918T208 1015T330 1055T449 1015T524 907H528V1034H817V0H528Z" />
<glyph unicode="b" glyph-name="b" horiz-adv-x="886" d="M72 0V1653H360V907H365Q390 974 439 1014T557 1055Q607 1055 649 1034T719 980T768 900T802 805T821 702T831 604T834 518Q834 460 828 398T804 258T756 121T674 21T555 -20Q428 -20 365 117H360V0H72ZM440
244Q474 244 497 276T530 361T542 449T545 522Q545 555 542 592T530 681T498 766T442 799Q414 799 394 775T364 720T348 644T341 574T340 522Q340 498 341 472T348 402T364 326T393 269T440 244Z" />
<glyph unicode="c" glyph-name="c" horiz-adv-x="645" d="M598 281V16Q518 -20 432 -20Q351 -20 286 12T178 98T106 221T65 364T53 510Q53 591 66 666T109 814T184 938T298 1023T455 1055Q525 1055 598 1024V770Q562 803 514 803Q464 803 428 776T375 704T350
616T342 526Q342 478 348 436T371 348T423 277T510 250Q554 250 598 281Z" />
<glyph unicode="d" glyph-name="d" horiz-adv-x="886" d="M528 0V117H524Q456 -20 334 -20Q267 -20 215 20T134 121T85 258T60 398T53 518Q53 581 58 643T81 783T127 918T208 1015T330 1055T449 1015T524 907H528V1653H817V0H528ZM449 244Q481 244 503 278T534
364T546 454T549 522Q549 556 546 592T534 680T502 766T444 799Q411 799 388 766T357 681T345 593T342 522Q342 493 343 467T350 397T366 322T398 268T449 244Z" />
<glyph unicode="e" glyph-name="e" horiz-adv-x="847" d="M545 618V643Q545 673 541 702T527 763T494 814T440 834Q409 834 387 815T354 766T339 707T334 649V618H545ZM795 559L788 440H332Q335 329 347 287Q371 201 440 201Q532 201 532 319H778Q758 163 684
78Q603 -20 451 -20Q366 -20 298 9T184 88T109 204T66 343T53 496Q53 575 64 649T104 799T176 929T288 1020T444 1055Q517 1055 582 1023T697 930T774 774T795 559Z" />
<glyph unicode="f" glyph-name="f" horiz-adv-x="612" d="M39 1034H145V1325Q145 1389 151 1436T175 1531T226 1607T312 1655T442 1673Q497 1673 567 1649V1370Q538 1386 516 1386Q501 1386 489 1383T469 1372T454 1357T444 1337T438 1315T435 1290T434 1266T434
1241T434 1219V1034H567V797H434V0H145V797H39V1034Z" />
<glyph unicode="g" glyph-name="g" horiz-adv-x="894" d="M451 244Q483 244 504 277T534 364T546 453T549 522Q549 557 547 592T535 680T503 766T446 799T389 766T357 681T345 593T342 522Q342 493 343 467T350 397T367 322T399 268T451 244ZM63 -137H319Q330
-285 424 -285Q447 -285 465 -276T496 -254T516 -218T528 -177T534 -130T536 -84T536 -39T535 -2V129H530Q496 60 461 27Q414 -20 344 -20Q208 -20 121 152Q53 288 53 502Q53 546 55 589T65 689T85 795T119 894T169 977T239 1033T332 1055Q401 1055 453 1015T530
909H535V1034H823V-90Q823 -312 727 -413T436 -514Q87 -514 63 -137Z" />
<glyph unicode="h" glyph-name="h" horiz-adv-x="868" d="M72 1653H360V874H365Q395 952 459 1003T604 1055Q645 1055 677 1043T729 1011T764 962T785 902T795 836T799 767T799 701Q799 678 799 668V0H510V567Q510 573 511 599T512 643T509 685T498 725T475 752T438
764Q360 764 360 645V0H72V1653Z" />
<glyph unicode="i" glyph-name="i" horiz-adv-x="428" d="M70 1034H358V0H70V1034ZM288 1157T213 1157T85 1211T31 1343Q31 1421 85 1473T219 1526Q293 1526 345 1470T397 1339Q397 1265 343 1211Z" />
<glyph unicode="j" glyph-name="j" horiz-adv-x="428" d="M70 1034H358V-510H70V1034ZM288 1157T213 1157T85 1211T31 1343Q31 1421 85 1473T219 1526Q293 1526 345 1470T397 1339Q397 1265 343 1211Z" />
<glyph unicode="k" glyph-name="k" horiz-adv-x="901" d="M72 1653H360V672H365L522 1034H836L602 612L887 0H569L365 479H360V0H72V1653Z" />
<glyph unicode="l" glyph-name="l" horiz-adv-x="430" d="M72 1653H360V0H72V1653Z" />
<glyph unicode="m" glyph-name="m" horiz-adv-x="1308" d="M360 1034L362 868H367Q458 1055 621 1055Q696 1055 741 1005T799 879H803Q841 954 907 1004T1051 1055Q1081 1055 1106 1047T1149 1028T1182 996T1205 958T1220 911T1230 863T1235 811T1237 762T1237
715V0H948V561Q948 566 948 588T949 625T948 663T941 702T929 734T908 758T877 766Q799 766 799 649V0H510V580Q510 585 510 605T511 638T509 672T504 707T492 734T472 755T442 762Q360 762 360 643V0H72V1034H360Z" />
<glyph unicode="n" glyph-name="n" horiz-adv-x="868" d="M360 1034V874H365Q395 952 459 1003T604 1055Q645 1055 677 1043T729 1011T764 962T785 902T795 836T799 767T799 701Q799 678 799 668V0H510V567Q510 573 511 599T512 643T509 685T498 725T475 752T438
764Q360 764 360 645V0H72V1034H360Z" />
<glyph unicode="o" glyph-name="o" horiz-adv-x="892" d="M356 1055T446 1055T606 1024T719 942T790 820T829 674T840 516T829 359T790 214T719 93T606 11T446 -20T287 11T174 92T103 214T64 358T53 516T64 674T103 819T174 942T286 1024ZM446 795Q418 795 397
771T366 715T350 639T343 569T342 516T343 464T350 394T366 318T397 262T446 238Q481 238 504 271T537 357T548 445T551 516Q551 543 550 568T543 638T527 714T496 770T446 795Z" />
<glyph unicode="p" glyph-name="p" horiz-adv-x="886" d="M440 244Q545 244 545 522Q545 555 542 592T530 681T498 766T442 799Q414 799 394 775T364 720T348 644T341 574T340 522Q340 498 341 472T348 402T364 326T393 269T440 244ZM360 1034V907H365Q390 974
439 1014T557 1055Q607 1055 649 1034T719 980T768 900T802 805T821 702T831 604T834 518Q834 460 828 398T804 258T756 121T674 21T555 -20Q428 -20 365 117H360V-510H72V1034H360Z" />
<glyph unicode="q" glyph-name="q" horiz-adv-x="886" d="M817 1034V-510H528V117H524Q456 -20 334 -20Q267 -20 215 20T134 121T85 258T60 398T53 518Q53 581 58 643T81 783T127 918T208 1015T330 1055T449 1015T524 907H528V1034H817ZM449 244Q481 244 503 278T534
364T546 454T549 522Q549 556 546 592T534 680T502 766T444 799Q411 799 388 766T357 681T345 593T342 522Q342 493 343 467T350 397T366 322T398 268T449 244Z" />
<glyph unicode="r" glyph-name="r" horiz-adv-x="645" d="M72 1034H360V909H365Q454 1060 600 1073V793Q572 797 555 797Q523 797 498 792T453 780T419 758T394 731T378 696T368 658T363 614T361 567T360 516V0H72V1034Z" />
<glyph unicode="s" glyph-name="s" horiz-adv-x="770" d="M709 967L592 756Q555 789 524 806T453 823Q415 823 395 803T375 748Q376 724 394 704T442 668T506 635T576 593T640 537T687 455T705 342Q705 183 617 82T373 -20Q291 -20 209 12T61 98L188 303Q266 236
332 236Q367 236 391 259T416 322Q417 349 399 371T352 410T288 445T218 488T153 547T105 632T86 752Q86 893 187 974T432 1055Q588 1055 709 967Z" />
<glyph unicode="t" glyph-name="t" horiz-adv-x="630" d="M162 1321H451V1034H569V797H451V0H162V797H61V1034H162V1321Z" />
<glyph unicode="u" glyph-name="u" horiz-adv-x="866" d="M72 1034H360V467Q360 460 359 432T358 385T361 338T372 293T395 263T434 250Q455 250 469 260T491 284T501 320T505 356T506 393Q506 400 506 403L508 1034H795V375Q795 188 704 84T426 -20Q358 -20 304
-6T213 32T149 92T108 163T85 246T75 330T72 414V1034Z" />
<glyph unicode="v" glyph-name="v" horiz-adv-x="925" d="M31 1034H317L455 467L457 451H461L483 557L596 1034H895L596 0H328L31 1034Z" />
<glyph unicode="w" glyph-name="w" horiz-adv-x="1421" d="M31 1034H311L451 428H455L590 1034H838L969 428H973L993 539L1116 1034H1391L1104 0H866L772 350L711 649H707L647 319L565 0H324L31 1034Z" />
<glyph unicode="x" glyph-name="x" horiz-adv-x="1001" d="M86 1034H385L467 877L498 813L614 1034H913L649 557L954 0H649L498 285L344 0H47L344 557L86 1034Z" />
<glyph unicode="y" glyph-name="y" horiz-adv-x="925" d="M31 1034H322L430 616L465 444H469L604 1034H895L451 -510H166L332 20L31 1034Z" />
<glyph unicode="z" glyph-name="z" horiz-adv-x="821" d="M80 1034H774L455 240H739V0H47L375 795H80V1034Z" />
<glyph unicode="{" glyph-name="braceleft" horiz-adv-x="614" d="M621 -254H487Q396 -254 338 -236T247 -175T202 -78T190 63V346Q190 449 156 506T37 563V719Q119 719 154 780T190 936V1268Q190 1411 248 1477T442 1544H621V1389Q525 1389 491 1337T457 1184V913Q457
793 423 731T289 645V641Q341 632 376 605T428 536T451 450T457 350V106Q457 61 463 28T487 -36T537 -82T621 -98V-254Z" />
<glyph unicode="|" glyph-name="bar" horiz-adv-x="512" d="M143 1610H369V-438H143V1610Z" />
<glyph unicode="}" glyph-name="braceright" horiz-adv-x="614" d="M127 -254H-6V-98Q88 -98 123 -43T158 106V350Q158 407 164 450T187 535T239 605T326 641V645Q227 668 193 730T158 913V1184Q158 1284 124 1336T-6 1389V1544H172Q308 1544 366 1478T424 1268V936Q424
842 460 781T578 719V563Q424 563 424 346V63Q424 -22 412 -77T368 -174T277 -235T127 -254Z" />
<glyph unicode="~" glyph-name="asciitilde" horiz-adv-x="1003" d="M848 735L963 586Q899 475 871 440Q795 346 698 346Q645 346 564 380T413 447T317 481Q297 481 279 473T248 454T221 423T199 389T178 349T160 313L43 465Q68 517 92 555T149 634T225 697T315
719Q360 719 419 698T524 652T620 605T698 584Q720 584 738 593T773 620T799 654T825 697T848 735Z" />
</font>
</defs>
</svg>
